<svg width="1623" height="1027" viewBox="0 0 1623 1027" fill="none" xmlns="http://www.w3.org/2000/svg">
<path fill-rule="evenodd" clip-rule="evenodd" d="M153.035 434.807L153.036 434.802L122.66 426.663C106.656 422.374 97.1586 405.924 101.447 389.92C105.735 373.916 122.185 364.419 138.189 368.707L166.474 376.286L166.478 376.272C166.563 376.299 166.649 376.325 166.734 376.35C166.878 376.392 167.022 376.433 167.167 376.471L223.964 391.69C233.566 394.263 243.436 388.565 246.009 378.962C248.582 369.36 242.884 359.49 233.281 356.917L131.279 329.585C73.6649 314.148 39.4738 254.927 54.9115 197.313C70.3493 139.698 129.57 105.507 187.184 120.945L366.668 169.038C366.944 168.936 367.221 168.835 367.498 168.734C368.731 169.409 370.065 169.948 371.483 170.328L428.28 185.546C437.882 188.119 447.752 182.421 450.325 172.819C452.727 163.856 447.922 154.659 439.462 151.382L439.741 151.348L315.89 118.162C309.489 116.446 305.69 109.866 307.405 103.465C309.12 97.0633 315.7 93.2643 322.102 94.9796L1378.05 377.921C1554.1 425.092 1658.57 606.043 1611.4 782.087C1564.23 958.131 1383.28 1062.6 1207.23 1015.43L60.8703 708.266C28.8623 699.689 9.86732 666.789 18.4438 634.781C27.0204 602.773 59.9206 583.778 91.9287 592.355L179.857 615.915L179.792 615.773C223.178 624.962 266.65 598.663 278.264 555.32C290.271 510.508 263.678 464.448 218.866 452.441L153.794 435.005C153.698 434.979 153.602 434.954 153.505 434.929C153.349 434.888 153.192 434.847 153.035 434.807ZM431.445 447.285C441.047 449.857 450.917 444.159 453.49 434.557C456.063 424.954 450.365 415.084 440.762 412.511L359.624 390.77C350.022 388.197 340.152 393.896 337.579 403.498C335.006 413.101 340.704 422.971 350.307 425.544L431.445 447.285ZM890.238 879.474C888.38 886.409 881.252 890.525 874.317 888.666L316.978 739.328C310.043 737.47 305.927 730.341 307.785 723.406C309.644 716.471 316.772 712.356 323.707 714.214L881.046 863.552C887.981 865.411 892.097 872.539 890.238 879.474ZM1343.73 882.958C1336.58 909.631 1309.16 925.46 1282.49 918.313L874.868 809.091C848.195 801.944 832.366 774.527 839.513 747.854C846.66 721.181 874.077 705.352 900.75 712.499L1308.37 821.72C1335.04 828.867 1350.87 856.284 1343.73 882.958ZM646.875 234.51C642.587 250.514 626.137 260.012 610.133 255.724L539.62 236.83C523.616 232.541 514.119 216.091 518.407 200.087C522.695 184.083 539.145 174.586 555.149 178.874L625.662 197.768C641.666 202.056 651.163 218.506 646.875 234.51ZM397.934 374.466C421.406 380.756 445.533 366.826 451.822 343.354C458.112 319.881 444.182 295.754 420.71 289.465L194.849 228.946C171.377 222.656 147.25 236.586 140.96 260.058C134.671 283.531 148.6 307.658 172.073 313.947L397.934 374.466Z" fill="url(#paint0_linear)"/>
<path d="M390.934 0.370687C385.172 -1.1731 379.25 2.246 377.707 8.00741C376.163 13.7688 379.582 19.6909 385.343 21.2347L654.258 93.2901C657.458 94.1477 659.358 97.4377 658.5 100.639C657.643 103.839 654.352 105.739 651.152 104.881L652.311 105.192C639.508 101.761 626.347 109.359 622.917 122.162C619.486 134.966 627.084 148.126 639.888 151.556L954.007 235.724C966.81 239.155 979.97 231.557 983.401 218.754C986.832 205.951 979.234 192.79 966.43 189.36L675.493 111.403C675.58 111.427 675.667 111.448 675.753 111.467C675.862 111.491 675.971 111.512 676.08 111.53C673.23 110.455 671.604 107.371 672.41 104.366C673.215 101.36 676.164 99.5022 679.171 99.9962C678.985 99.9262 678.795 99.8647 678.599 99.8123L724.964 112.236C730.725 113.779 736.647 110.36 738.191 104.599C739.734 98.8375 736.315 92.9154 730.554 91.3716L390.934 0.370687Z" fill="url(#paint1_linear)"/>
<path d="M246.343 99.5268C252.745 101.242 259.325 97.4431 261.041 91.0415C262.756 84.64 258.957 78.0599 252.555 76.3446L180.69 57.0884C174.289 55.3731 167.709 59.1721 165.993 65.5737C164.278 71.9753 168.077 78.5553 174.479 80.2706L246.343 99.5268Z" fill="url(#paint2_linear)"/>
<path d="M99.7155 544.748C118.92 549.894 138.661 538.497 143.806 519.292C148.952 500.087 137.555 480.347 118.351 475.201L45.3264 455.634C26.1217 450.488 6.38152 461.885 1.23561 481.09C-3.91031 500.295 7.4867 520.035 26.6914 525.181L99.7155 544.748Z" fill="url(#paint3_linear)"/>
<defs>
<linearGradient id="paint0_linear" x1="1835" y1="784" x2="377.908" y2="-193.704" gradientUnits="userSpaceOnUse">
<stop stop-color="#FFD5CA"/>
<stop offset="1" stop-color="#D1E1FD"/>
</linearGradient>
<linearGradient id="paint1_linear" x1="1835" y1="784" x2="377.908" y2="-193.704" gradientUnits="userSpaceOnUse">
<stop stop-color="#FFD5CA"/>
<stop offset="1" stop-color="#D1E1FD"/>
</linearGradient>
<linearGradient id="paint2_linear" x1="1835" y1="784" x2="377.908" y2="-193.704" gradientUnits="userSpaceOnUse">
<stop stop-color="#FFD5CA"/>
<stop offset="1" stop-color="#D1E1FD"/>
</linearGradient>
<linearGradient id="paint3_linear" x1="1835" y1="784" x2="377.908" y2="-193.704" gradientUnits="userSpaceOnUse">
<stop stop-color="#FFD5CA"/>
<stop offset="1" stop-color="#D1E1FD"/>
</linearGradient>
</defs>
</svg>
