<svg width="22" height="30" viewBox="0 0 22 30" fill="none" xmlns="http://www.w3.org/2000/svg">
<g clip-path="url(#clip0)">
<path d="M21.2539 5.89575L19.3177 27.5871L10.614 30L1.93424 27.5905L0 5.89575H21.2539Z" fill="#264DE4"/>
<path d="M17.66 26.2059L19.3146 7.66968H10.627V28.1558L17.66 26.2059Z" fill="#2965F1"/>
<path d="M4.4342 15.7158L4.67268 18.3766H10.627V15.7158H4.4342Z" fill="#EBEBEB"/>
<path d="M10.6269 10.3306H10.6177H3.95496L4.19683 12.9914H10.6269V10.3306Z" fill="#EBEBEB"/>
<path d="M10.627 25.3945V22.6262L10.6154 22.6293L7.65206 21.8291L7.46262 19.707H6.02268H4.79163L5.1644 23.8848L10.6148 25.3979L10.627 25.3945Z" fill="#EBEBEB"/>
<path d="M5.00195 0H8.22461V1.34766H6.34961V2.69531H8.22461V4.04297H5.00195V0Z" fill="black"/>
<path d="M8.86914 0H12.0918V1.17188H10.2168V1.40625H12.0918V4.10156H8.86914V2.87109H10.7441V2.63672H8.86914V0Z" fill="black"/>
<path d="M12.7363 0H15.959V1.17188H14.084V1.40625H15.959V4.10156H12.7363V2.87109H14.6113V2.63672H12.7363V0Z" fill="black"/>
<path d="M13.8942 18.3768L13.5854 21.8276L10.6178 22.6286V25.3968L16.0725 23.885L16.1125 23.4355L16.7378 16.4305L16.8027 15.716L17.2831 10.3306H10.6178V12.9914H14.3671L14.125 15.716H10.6178V18.3768H13.8942Z" fill="white"/>
</g>
<defs>
<clipPath id="clip0">
<rect width="21.2539" height="30" fill="white"/>
</clipPath>
</defs>
</svg>
