<svg width="40" height="40" viewBox="0 0 40 40" fill="none" xmlns="http://www.w3.org/2000/svg">
<path fill-rule="evenodd" clip-rule="evenodd" d="M20 40C31.0457 40 40 31.0457 40 20C40 8.95432 31.0457 0 20 0C8.95432 0 0 8.95432 0 20C0 31.0457 8.95432 40 20 40ZM27.0244 8.4428C24.9672 7.3476 22.6119 6.8 19.9586 6.8C17.2092 6.8 14.777 7.3668 12.6621 8.50044C10.5471 9.63408 8.90324 11.2 7.7304 13.1982C6.5768 15.1965 6 17.4446 6 19.9424C6 22.4594 6.5768 24.7266 7.7304 26.7441C8.884 28.7616 10.5087 30.3371 12.6044 31.4708C14.7001 32.6236 17.1131 33.2 19.8433 33.2C21.0161 33.2 22.1889 33.0751 23.3618 32.8253C24.5538 32.5948 25.5824 32.2585 26.4476 31.8166L25.5248 29.1651C23.8136 30.0105 21.9198 30.4332 19.8433 30.4332C17.7476 30.4332 15.8922 29.9816 14.2771 29.0786C12.6813 28.1948 11.4412 26.9651 10.5567 25.3895C9.67232 23.7948 9.23008 21.979 9.23008 19.9424C9.23008 17.9441 9.67232 16.1572 10.5567 14.5816C11.4604 13.0061 12.7198 11.7764 14.3348 10.8926C15.9691 9.98952 17.8437 9.538 19.9586 9.538C22.0736 9.538 23.9386 9.96068 25.5536 10.8061C27.1879 11.6323 28.4472 12.7948 29.3317 14.2934C30.2353 15.7729 30.6872 17.483 30.6872 19.4236C30.6872 21.0568 30.4949 22.2768 30.1104 23.0838C29.745 23.8908 29.2259 24.2943 28.553 24.2943C27.6301 24.2943 27.1686 23.6795 27.1686 22.4498V13.1118H23.2464V14.8122C22.1889 13.5441 20.7085 12.91 18.805 12.91C17.5553 12.91 16.4209 13.2175 15.4019 13.8323C14.4021 14.4472 13.6042 15.3118 13.0082 16.4262C12.4314 17.5214 12.143 18.7703 12.143 20.1729C12.143 21.5948 12.4314 22.8629 13.0082 23.9773C13.6042 25.0725 14.4117 25.9275 15.4307 26.5424C16.4497 27.1572 17.5745 27.4646 18.805 27.4646C21.0546 27.4646 22.6984 26.6288 23.7367 24.9572C24.0443 25.7834 24.5346 26.4079 25.2075 26.8306C25.8804 27.2533 26.7072 27.4646 27.6878 27.4646C28.8798 27.4646 29.9181 27.1476 30.8025 26.5135C31.6869 25.8795 32.3695 24.9572 32.8502 23.7467C33.35 22.517 33.6 21.0568 33.6 19.3659C33.6 16.9642 33.0232 14.8122 31.8696 12.91C30.716 11.0079 29.1009 9.51876 27.0244 8.4428ZM22.2947 23.1127C21.6217 23.8044 20.7565 24.1502 19.699 24.1502C18.6224 24.1502 17.7572 23.7948 17.1034 23.0838C16.4497 22.3729 16.1229 21.4026 16.1229 20.1729C16.1229 18.9624 16.4497 18.0114 17.1034 17.3196C17.7572 16.6087 18.6224 16.2533 19.699 16.2533C20.7565 16.2533 21.6217 16.5991 22.2947 17.2908C22.9676 17.9825 23.3041 18.9432 23.3041 20.1729C23.3041 21.4218 22.9676 22.4018 22.2947 23.1127Z" fill="#F65E1D"/>
</svg>
