<svg width="20" height="30" viewBox="0 0 20 30" fill="none" xmlns="http://www.w3.org/2000/svg">
<g clip-path="url(#clip0)">
<path d="M4.999 29.9939C7.75845 29.9939 9.998 27.7543 9.998 24.9949V19.9958H4.999C2.23955 19.9958 0 22.2354 0 24.9949C0 27.7543 2.23955 29.9939 4.999 29.9939Z" fill="#0ACF83"/>
<path d="M0 14.997C0 12.2376 2.23955 9.99805 4.999 9.99805H9.998V19.996H4.999C2.23955 19.996 0 17.7565 0 14.997Z" fill="#A259FF"/>
<path d="M0 4.999C0 2.23955 2.23955 0 4.999 0H9.998V9.998H4.999C2.23955 9.998 0 7.75845 0 4.999Z" fill="#F24E1E"/>
<path d="M9.99805 0H14.997C17.7565 0 19.996 2.23955 19.996 4.999C19.996 7.75845 17.7565 9.998 14.997 9.998H9.99805V0Z" fill="#FF7262"/>
<path d="M19.996 14.997C19.996 17.7565 17.7565 19.996 14.997 19.996C12.2376 19.996 9.99805 17.7565 9.99805 14.997C9.99805 12.2376 12.2376 9.99805 14.997 9.99805C17.7565 9.99805 19.996 12.2376 19.996 14.997Z" fill="#1ABCFE"/>
</g>
<defs>
<clipPath id="clip0">
<rect width="19.996" height="30" fill="white"/>
</clipPath>
</defs>
</svg>
