<svg width="40" height="40" viewBox="0 0 40 40" fill="none" xmlns="http://www.w3.org/2000/svg">
<path fill-rule="evenodd" clip-rule="evenodd" d="M19.9982 0.400024C8.95546 0.400024 0 9.39725 0 20.4967C0 29.3755 5.73007 36.9071 13.6775 39.5644C14.6782 39.7495 15.0428 39.1289 15.0428 38.596C15.0428 38.1198 15.0256 36.8553 15.0158 35.1787C9.45272 36.3926 8.27895 32.4843 8.27895 32.4843C7.36916 30.1625 6.05789 29.5445 6.05789 29.5445C4.242 28.2985 6.1954 28.3231 6.1954 28.3231C8.20283 28.465 9.25873 30.3945 9.25873 30.3945C11.0427 33.4651 13.9403 32.5781 15.0797 32.0636C15.2614 30.7658 15.7783 29.88 16.3492 29.3779C11.9083 28.8709 7.23902 27.1462 7.23902 19.4456C7.23902 17.2521 8.01866 15.4571 9.29801 14.0532C9.09175 13.5449 8.40541 11.5007 9.49446 8.73476C9.49446 8.73476 11.1728 8.19441 14.9937 10.795C16.5886 10.3484 18.3001 10.1264 20.0006 10.1177C21.6999 10.1264 23.4102 10.3484 25.0075 10.795C28.8259 8.19441 30.5019 8.73476 30.5019 8.73476C31.5934 11.5007 30.907 13.5449 30.702 14.0532C31.9838 15.4571 32.7573 17.2521 32.7573 19.4456C32.7573 27.1659 28.0807 28.8647 23.6263 29.3619C24.3433 29.9824 24.983 31.2087 24.983 33.0839C24.983 35.7696 24.9584 37.9372 24.9584 38.596C24.9584 39.1339 25.3194 39.7593 26.3335 39.5632C34.2748 36.8997 40 29.373 40 20.4967C40 9.39725 31.0445 0.400024 19.9982 0.400024Z" fill="#F65E1D"/>
</svg>
