<svg width="30" height="30" viewBox="0 0 30 30" fill="none" xmlns="http://www.w3.org/2000/svg">
<path d="M13.7984 12.4819H16.1135L16.6885 11.6902V5.48813H13.2235V11.6907L13.7984 12.4819Z" fill="#8A4182"/>
<path d="M12.306 15.2483L13.0213 13.0467L12.446 12.2548L6.5475 10.3383L5.47668 13.6338L11.3761 15.5505L12.306 15.2483Z" fill="#8A4182"/>
<path d="M14.4757 17.5228L12.603 16.1615L11.6722 16.4645L8.02673 21.4821L10.8299 23.5186L14.4757 18.5006V17.5228Z" fill="#8A4182"/>
<path d="M17.3091 16.1615L15.436 17.5223L15.4363 18.5008L19.0817 23.5186L21.8852 21.4821L18.2391 16.464L17.3091 16.1615Z" fill="#8A4182"/>
<path d="M16.89 13.0461L17.6057 15.2481L18.5364 15.55L24.435 13.6338L23.3644 10.3383L17.4654 12.2551L16.89 13.0461Z" fill="#8A4182"/>
<path d="M14.9567 0.105015C6.71566 0.105015 0.0108643 6.80859 0.0108643 15.0484C0.0108643 23.2912 6.71566 29.9968 14.9567 29.9968C23.1969 29.9968 29.9008 23.2912 29.9008 15.0484C29.9008 6.80859 23.1969 0.105015 14.9567 0.105015ZM14.9567 3.13078C21.5376 3.13078 26.8747 8.46573 26.8747 15.0484C26.8747 21.6334 21.5376 26.9706 14.9567 26.9706C8.37313 26.9706 3.03691 21.6334 3.03691 15.0484C3.03691 8.46573 8.37313 3.13078 14.9567 3.13078Z" fill="#8A4182"/>
<path d="M24.0084 18.3701L19.5244 16.9129L19.8211 15.9995L24.3048 17.4566L24.0084 18.3701Z" fill="#8A4182"/>
<path d="M18.2897 11.1716L17.5127 10.6072L20.2836 6.79265L21.0608 7.35694L18.2897 11.1716Z" fill="#8A4182"/>
<path d="M11.6701 11.1365L8.89941 7.32206L9.67658 6.75752L12.4472 10.5722L11.6701 11.1365Z" fill="#8A4182"/>
<path d="M5.88496 18.313L5.58838 17.3997L10.072 15.9433L10.3685 16.8566L5.88496 18.313Z" fill="#8A4182"/>
<path d="M14.4462 24.5767H15.4064V19.862H14.4462V24.5767Z" fill="#8A4182"/>
</svg>
