<svg width="40" height="40" viewBox="0 0 40 40" fill="none" xmlns="http://www.w3.org/2000/svg">
<path fill-rule="evenodd" clip-rule="evenodd" d="M20 0C31.0457 0 40 8.95431 40 20C40 31.0457 31.0457 40 20 40C8.95431 40 0 31.0457 0 20C0 8.95431 8.95431 0 20 0ZM14.45 14.9841H9.55V30H14.45V14.9841ZM26.6672 14.8L26.5139 14.8016C24.0916 14.8537 22.9329 16.1376 22.2687 17.1174L22.1848 17.2433L22.1796 17.2504L22.1796 15.1485H17.2L17.2017 15.187C17.2201 15.6528 17.2275 17.1247 17.2289 18.971L17.2288 20.3574C17.2286 20.767 17.2281 21.1861 17.2274 21.6091L17.2267 22.0332L17.2246 23.0968L17.2238 23.433C17.2165 26.3959 17.2039 29.1642 17.2007 29.8423L17.2004 29.9101L17.2003 29.937L17.2 29.999L17.2 30H22.1795V21.7063L22.1805 21.5733C22.187 21.175 22.225 20.7873 22.3433 20.5017C22.7033 19.6148 23.5227 18.6964 24.8983 18.6964C26.7001 18.6964 27.4209 20.0583 27.4209 22.0548V30H32.4V21.4844L32.399 21.3225C32.3414 16.8724 29.9044 14.8 26.6672 14.8ZM12.0164 8C10.3134 8 9.2 9.13177 9.2 10.6193C9.2 12.074 10.2803 13.2381 11.951 13.2381H11.9833L12.0933 13.2365C13.765 13.1884 14.8 12.0431 14.8 10.6193C14.7676 9.13177 13.7195 8 12.0164 8Z" fill="#F65E1D"/>
</svg>
