<svg width="566" height="100" viewBox="0 0 566 100" fill="none" xmlns="http://www.w3.org/2000/svg">
<path fill-rule="evenodd" clip-rule="evenodd" d="M115.721 86.8421L113.127 100H42.6576C14.1606 99.9999 -7.21152 85.7143 2.28722 42.8571C11.786 0 45.0318 0 51.7661 0.000145316C58.5004 0.000290632 200.575 0 200.575 0L196.574 13.158H58.6054C50.8067 13.158 24.1013 13.4835 16.5355 47.6191C8.9697 81.7547 32.7004 86.8421 48.3494 86.8421H115.721ZM257.165 27.8095C253.745 24.6984 249.281 23.1428 243.772 23.1428C241.302 23.1428 238.864 23.5555 236.458 24.3809C234.051 25.2063 231.803 26.4444 229.713 28.0952L236.458 0H214.99L198.652 76.1904H220.12L225.154 51.1428C226.484 44.5396 229.682 41.2381 234.748 41.2381C238.357 41.2381 240.162 43.1111 240.162 46.8571C240.162 47.4285 240.035 48.4761 239.782 50L234.558 76.1904H256.025L261.724 47.4285C262.168 45.2698 262.389 43.1428 262.389 41.0476C262.389 35.2698 260.648 30.8571 257.165 27.8095ZM40.2094 74.1904C44.4522 76.1586 49.4232 77.1428 55.1225 77.1428C61.3284 77.1428 66.8694 75.8412 71.7454 73.238C76.6848 70.6348 80.5476 67.0793 83.334 62.5714C86.1203 57.9999 87.5134 52.8888 87.5134 47.238C87.5134 42.4127 86.3419 38.1904 83.9989 34.5714C81.7192 30.9524 78.4579 28.1587 74.2151 26.1905C69.9723 24.1587 65.0013 23.1428 59.302 23.1428C53.0961 23.1428 47.5235 24.4444 42.5841 27.0476C37.708 29.6508 33.8769 33.2381 31.0905 37.8095C28.3042 42.3174 26.9111 47.3968 26.9111 53.0476C26.9111 57.873 28.0509 62.0952 30.3306 65.7142C32.6737 69.3333 35.9666 72.1587 40.2094 74.1904ZM63.1015 56.9523C61.3917 59.111 59.1437 60.1904 56.3574 60.1904C53.951 60.1904 52.0512 59.4603 50.6581 57.9999C49.3282 56.4761 48.6633 54.4761 48.6633 51.9999C48.6633 48.3809 49.5182 45.492 51.228 43.3333C53.0011 41.1746 55.2808 40.0952 58.0671 40.0952C60.4735 40.0952 62.3416 40.8571 63.6714 42.3809C65.0646 43.8412 65.7612 45.8095 65.7612 48.2857C65.7612 51.9047 64.8746 54.7936 63.1015 56.9523ZM136.601 23.1428C128.686 23.1428 122.607 25.2381 118.364 29.4285L119.409 24.0952H99.1762L88.8225 76.1904H110.29L115.134 52.0952C115.894 48.4761 117.319 45.873 119.409 44.2857C121.562 42.6349 124.475 41.8095 128.148 41.8095C129.667 41.8095 131.219 41.9365 132.802 42.1904L136.601 23.1428ZM175.837 23.1428C179.383 23.1428 182.802 24.0952 186.095 26C189.388 27.9047 192.048 30.6984 194.074 34.3809C196.164 38 197.209 42.2857 197.209 47.238C197.209 52.8253 195.942 57.9047 193.409 62.4761C190.94 67.0475 187.584 70.6348 183.341 73.238C179.098 75.8412 174.507 77.1428 169.567 77.1428C162.602 77.1428 157.662 74.984 154.749 70.6666L149.518 99.9999H128.051L142.496 24.0952H162.728L161.778 28.8571C165.705 25.0476 170.391 23.1428 175.837 23.1428ZM166.053 60.1904C168.839 60.1904 171.087 59.111 172.797 56.9523C174.57 54.7936 175.457 51.9047 175.457 48.2857C175.457 45.8095 174.76 43.8412 173.367 42.3809C172.037 40.8571 170.169 40.0952 167.763 40.0952C164.976 40.0952 162.697 41.1746 160.924 43.3333C159.214 45.492 158.359 48.3809 158.359 51.9999C158.359 54.4761 159.024 56.4761 160.354 57.9999C161.747 59.4603 163.647 60.1904 166.053 60.1904ZM327.258 46.0952C327.258 48.9523 326.878 51.9682 326.118 55.1428H289.738C290.181 57.3015 291.226 58.8571 292.872 59.8095C294.519 60.7618 296.798 61.238 299.711 61.238C304.018 61.238 307.785 60.0317 311.015 57.619L319.944 70.6666C313.611 74.984 306.044 77.1428 297.242 77.1428C291.606 77.1428 286.603 76.1586 282.234 74.1904C277.928 72.2221 274.571 69.4285 272.165 65.8095C269.822 62.1904 268.65 57.9364 268.65 53.0476C268.65 47.3333 269.98 42.2222 272.64 37.7143C275.363 33.1428 279.162 29.5873 284.038 27.0476C288.914 24.4444 294.519 23.1428 300.851 23.1428C306.297 23.1428 311.015 24.127 315.004 26.0952C318.994 28 322.034 30.6984 324.123 34.1904C326.213 37.619 327.258 41.5873 327.258 46.0952ZM299.901 37.8095C297.558 37.8095 295.595 38.4444 294.012 39.7142C292.492 40.9206 291.352 42.6031 290.593 44.7619H307.595C307.595 42.6031 306.899 40.9206 305.506 39.7142C304.113 38.4444 302.244 37.8095 299.901 37.8095ZM384.767 76.1904L395.121 24.0952H373.654L368.619 49.1428C367.289 55.746 364.155 59.0476 359.215 59.0476C355.733 59.0476 353.991 57.2063 353.991 53.5238C353.991 52.8888 354.118 51.8095 354.371 50.2857L359.595 24.0952H338.128L332.429 52.8571C331.986 55.0793 331.764 57.2698 331.764 59.4285C331.764 65.1428 333.442 69.5237 336.798 72.5714C340.155 75.619 344.619 77.1428 350.192 77.1428C352.915 77.1428 355.606 76.6348 358.266 75.619C360.925 74.6031 363.363 73.0475 365.58 70.9523L364.535 76.1904H384.767ZM415.851 77.1428C411.355 77.1428 407.017 76.6983 402.838 75.8094C398.658 74.9206 395.397 73.7777 393.054 72.3809L400.463 57.7142C402.933 59.238 405.783 60.4126 409.012 61.238C412.305 62.0634 415.471 62.4761 418.511 62.4761C422.754 62.4761 424.875 61.6507 424.875 59.9999C424.875 59.3015 424.305 58.7936 423.165 58.4761C422.089 58.0952 420.347 57.746 417.941 57.4285C414.205 56.8571 411.039 56.1904 408.442 55.4285C405.846 54.6031 403.566 53.2063 401.603 51.238C399.64 49.2063 398.658 46.4127 398.658 42.8571C398.658 36.4444 401.381 31.5555 406.827 28.1905C412.273 24.8254 419.303 23.1428 427.915 23.1428C431.714 23.1428 435.356 23.4921 438.838 24.1905C442.385 24.8254 445.519 25.7778 448.242 27.0476L440.833 41.7142C436.337 39.1111 431.176 37.8095 425.35 37.8095C423.07 37.8095 421.392 38.0635 420.316 38.5714C419.303 39.0793 418.796 39.6825 418.796 40.3809C418.796 41.0793 419.334 41.619 420.411 42C421.487 42.3174 423.324 42.6984 425.92 43.1428C429.593 43.7142 432.696 44.4127 435.229 45.238C437.825 46 440.073 47.3968 441.973 49.4285C443.936 51.3968 444.918 54.1269 444.918 57.619C444.918 61.8095 443.619 65.3968 441.023 68.3809C438.49 71.3015 435.007 73.492 430.574 74.9523C426.205 76.4126 421.297 77.1428 415.851 77.1428ZM483.683 13.158C487.29 13.158 490.288 10.1638 490.288 6.54761C490.288 2.93143 487.364 0 483.757 0H248.255L245.676 13.1579L483.683 13.158ZM166.922 99.9997L169.501 86.8419H481.976C485.583 86.8419 489.101 90.4761 489.101 93.4522C489.101 97.0684 485.583 99.9997 481.976 99.9997H166.922ZM512.517 29.9879C512.517 33.6041 509.519 36.5983 505.912 36.5983L457.882 36.5981L460.46 23.4403H505.987C509.593 23.4403 512.517 26.3717 512.517 29.9879ZM558.578 56.6102C562.184 56.6102 565.182 53.616 565.182 49.9998C565.182 46.3836 562.259 43.4522 558.652 43.4522H465.632L463.053 56.61L558.578 56.6102ZM522.477 70.8332C522.477 74.4494 519.48 77.4436 515.873 77.4436L455.114 77.4435L457.693 64.2856H515.947C519.554 64.2856 522.477 67.217 522.477 70.8332Z" fill="#2E579B"/>
</svg>
