<svg width="0" height="0" viewBox="0 0 740 555" fill="none" xmlns="http://www.w3.org/2000/svg">
  <clipPath id="profile-picture-clip">
    <path fill-rule="evenodd" clip-rule="evenodd" d="M677.073 150.278C685.974 183.495 666.745 217.683 633.562 226.574L391.229 291.507C372.149 296.62 361.161 315.68 366.278 334.78C371.396 353.88 390.769 366.112 409.849 360.999L609.561 307.486C624.494 303.485 639.533 312.182 643.539 327.129C647.544 342.077 638.867 357.128 623.935 361.129L532.603 385.602C525.137 387.602 520.798 395.128 522.801 402.602C524.804 410.075 532.324 414.423 539.79 412.423L573.887 403.287C591.308 398.619 609.369 409.062 614.042 426.501C618.715 443.94 608.295 462.015 590.874 466.683L293.017 546.493L293.017 546.492C168.817 579.337 41.3319 505.434 8.02217 381.12C-25.2876 256.807 48.1667 129.062 172.149 95.4071L172.319 95.3611C172.512 95.3087 172.706 95.2566 172.9 95.2046L522.633 1.49468C545.861 -4.72927 569.828 9.05074 576.059 32.3028C582.289 55.5548 568.137 79.4624 544.909 85.6863L442.618 113.095C433.603 115.511 428.928 125.329 431.36 134.405C433.792 143.482 442.368 148.342 451.438 146.012L601.222 105.878C634.405 96.9865 668.173 117.061 677.073 150.278ZM450.894 436.243C458.292 434.261 462.68 426.65 460.696 419.244C458.711 411.837 451.105 407.44 443.707 409.422L390.126 423.779C382.728 425.761 378.339 433.373 380.324 440.779C382.308 448.186 389.915 452.583 397.313 450.601L450.894 436.243Z"/>
    <path d="M714.868 433.459L667.365 446.187C649.875 450.873 631.897 440.494 627.211 423.004C622.524 405.514 632.904 387.536 650.394 382.85L697.897 370.122C715.387 365.435 733.364 375.814 738.051 393.305C742.737 410.795 732.358 428.772 714.868 433.459Z"/>
    <path d="M697.144 282.277C711.962 278.307 727.197 287.114 731.172 301.949C735.147 316.784 726.357 332.029 711.539 335.999L699.344 339.267C684.526 343.238 669.291 334.43 665.316 319.595C661.341 304.76 670.131 289.516 684.949 285.545L697.144 282.277Z"/>
  </clipPath>
</svg>
