<svg width="30" height="30" viewBox="0 0 30 30" fill="none" xmlns="http://www.w3.org/2000/svg">
<g clip-path="url(#clip0)">
<path d="M14.7372 0.105713C13.5203 0.111367 12.3582 0.215151 11.3356 0.396089C8.32337 0.928258 7.77646 2.04213 7.77646 4.09631V6.80925H14.8948V7.71357H7.77646H5.105C3.03621 7.71357 1.22471 8.95703 0.658098 11.3225C0.00451747 14.0339 -0.0244724 15.7259 0.658098 18.557C1.1641 20.6644 2.37249 22.166 4.44128 22.166H6.88874V18.9138C6.88874 16.5643 8.92161 14.4918 11.3356 14.4918H18.4457C20.4249 14.4918 22.0049 12.8622 22.0049 10.8745V4.09631C22.0049 2.16719 20.3775 0.718051 18.4457 0.396089C17.2229 0.192534 15.9541 0.100058 14.7372 0.105713ZM10.8876 2.28768C11.6229 2.28768 12.2234 2.89794 12.2234 3.6483C12.2234 4.396 11.6229 5.00062 10.8876 5.00062C10.1497 5.00062 9.5519 4.396 9.5519 3.6483C9.5519 2.89794 10.1497 2.28768 10.8876 2.28768Z" fill="url(#paint0_linear)"/>
<path d="M22.8926 7.71362V10.8746C22.8926 13.3252 20.8149 15.3878 18.4457 15.3878H11.3356C9.38804 15.3878 7.77643 17.0547 7.77643 19.0051V25.7833C7.77643 27.7124 9.45393 28.8471 11.3356 29.4006C13.5889 30.0631 15.7497 30.1829 18.4457 29.4006C20.2378 28.8817 22.0049 27.8375 22.0049 25.7833V23.0704H14.8948V22.1661H22.0049H25.564C27.6328 22.1661 28.4038 20.723 29.1232 18.5571C29.8664 16.3273 29.8348 14.183 29.1232 11.3226C28.6119 9.26309 27.6355 7.71362 25.564 7.71362H22.8926ZM18.8937 24.879C19.6316 24.879 20.2294 25.4836 20.2294 26.2313C20.2294 26.9817 19.6316 27.5919 18.8937 27.5919C18.1584 27.5919 17.558 26.9817 17.558 26.2313C17.558 25.4836 18.1584 24.879 18.8937 24.879Z" fill="url(#paint1_linear)"/>
</g>
<defs>
<linearGradient id="paint0_linear" x1="0.366542" y1="0.105469" x2="16.4698" y2="14.0939" gradientUnits="userSpaceOnUse">
<stop stop-color="#5A9FD4"/>
<stop offset="1" stop-color="#306998"/>
</linearGradient>
<linearGradient id="paint1_linear" x1="18.7226" y1="26.0032" x2="12.9662" y2="17.7802" gradientUnits="userSpaceOnUse">
<stop stop-color="#FFD43B"/>
<stop offset="1" stop-color="#FFE873"/>
</linearGradient>
<clipPath id="clip0">
<rect width="29.7345" height="30" fill="white"/>
</clipPath>
</defs>
</svg>
