<svg width="30" height="27" viewBox="0 0 30 27" fill="none" xmlns="http://www.w3.org/2000/svg">
<g clip-path="url(#clip0)">
<path d="M29.9573 13.3232C29.9573 11.3415 27.4756 9.46342 23.6707 8.29878C24.5488 4.42073 24.1585 1.33537 22.439 0.347561C22.0427 0.115854 21.5792 0.00609756 21.0732 0.00609756V1.36585C21.3536 1.36585 21.5792 1.42073 21.7683 1.52439C22.5975 2 22.9573 3.81098 22.6768 6.14024C22.6097 6.71341 22.5 7.31707 22.3658 7.93293C21.1707 7.64024 19.8658 7.41463 18.4939 7.26829C17.6707 6.14024 16.8171 5.11585 15.9573 4.21951C17.9451 2.37195 19.811 1.35976 21.0792 1.35976V0C19.4024 0 17.2073 1.19512 14.9878 3.26829C12.7683 1.20732 10.5732 0.0243902 8.89632 0.0243902V1.38415C10.1585 1.38415 12.0305 2.39024 14.0183 4.22561C13.1646 5.12195 12.311 6.14024 11.5 7.26829C10.1219 7.41463 8.81705 7.64024 7.62193 7.93902C7.48169 7.32927 7.37803 6.7378 7.30486 6.17073C7.01827 3.84146 7.37193 2.03049 8.1951 1.54878C8.37803 1.43902 8.61583 1.39024 8.89632 1.39024V0.0304878C8.38413 0.0304878 7.92071 0.140244 7.51827 0.371951C5.80486 1.35976 5.42071 4.43902 6.30486 8.30488C2.51218 9.47561 0.0426636 11.3476 0.0426636 13.3232C0.0426636 15.3049 2.52437 17.1829 6.32925 18.3476C5.4512 22.2256 5.84144 25.311 7.56096 26.2988C7.9573 26.5305 8.42071 26.6402 8.93291 26.6402C10.6097 26.6402 12.8049 25.4451 15.0244 23.372C17.2439 25.4329 19.439 26.6159 21.1158 26.6159C21.628 26.6159 22.0914 26.5061 22.4939 26.2744C24.2073 25.2866 24.5914 22.2073 23.7073 18.3415C27.4878 17.1768 29.9573 15.2988 29.9573 13.3232ZM22.0183 9.2561C21.7927 10.0427 21.5122 10.8537 21.1951 11.6646C20.9451 11.1768 20.6829 10.689 20.3963 10.2012C20.1158 9.71342 19.8171 9.2378 19.5183 8.77439C20.3841 8.90244 21.2195 9.06098 22.0183 9.2561ZM19.2256 15.75C18.75 16.5732 18.2622 17.3537 17.7561 18.0793C16.8475 18.1585 15.9268 18.2012 15 18.2012C14.0792 18.2012 13.1585 18.1585 12.2561 18.0854C11.75 17.3598 11.2561 16.5854 10.7805 15.7683C10.3171 14.9695 9.89632 14.1585 9.51218 13.3415C9.89022 12.5244 10.3171 11.7073 10.7744 10.9085C11.25 10.0854 11.7378 9.30488 12.2439 8.57927C13.1524 8.5 14.0732 8.45732 15 8.45732C15.9207 8.45732 16.8414 8.5 17.7439 8.57317C18.25 9.29878 18.7439 10.0732 19.2195 10.8902C19.6829 11.689 20.1036 12.5 20.4878 13.3171C20.1036 14.1341 19.6829 14.9512 19.2256 15.75ZM21.1951 14.9573C21.5244 15.7744 21.8049 16.5915 22.0366 17.3841C21.2378 17.5793 20.3963 17.7439 19.5244 17.872C19.8232 17.4024 20.1219 16.9207 20.4024 16.4268C20.6829 15.939 20.9451 15.4451 21.1951 14.9573ZM15.0122 21.4634C14.4451 20.878 13.878 20.2256 13.3171 19.5122C13.8658 19.5366 14.4268 19.5549 14.9939 19.5549C15.5671 19.5549 16.1341 19.5427 16.689 19.5122C16.1402 20.2256 15.5732 20.878 15.0122 21.4634ZM10.4756 17.872C9.60974 17.7439 8.77437 17.5854 7.97559 17.3902C8.2012 16.6037 8.48169 15.7927 8.79876 14.9817C9.04876 15.4695 9.31096 15.9573 9.59754 16.4451C9.88413 16.9329 10.1768 17.4085 10.4756 17.872ZM14.9817 5.18293C15.5488 5.76829 16.1158 6.42073 16.6768 7.13415C16.128 7.10976 15.5671 7.09146 15 7.09146C14.4268 7.09146 13.8597 7.10366 13.3049 7.13415C13.8536 6.42073 14.4207 5.76829 14.9817 5.18293ZM10.4695 8.77439C10.1707 9.2439 9.87193 9.72561 9.59144 10.2195C9.31096 10.7073 9.04876 11.1951 8.79876 11.6829C8.46949 10.8659 8.189 10.0488 7.9573 9.2561C8.75608 9.06707 9.59754 8.90244 10.4695 8.77439ZM4.9512 16.4085C2.79266 15.4878 1.39632 14.2805 1.39632 13.3232C1.39632 12.3659 2.79266 11.1524 4.9512 10.2378C5.47559 10.0122 6.04876 9.81098 6.64022 9.62195C6.98779 10.8171 7.4451 12.061 8.01218 13.3354C7.4512 14.6037 6.99998 15.8415 6.65852 17.0305C6.05486 16.8415 5.48169 16.6341 4.9512 16.4085ZM8.23169 25.122C7.40242 24.6463 7.04266 22.8354 7.32315 20.5061C7.39022 19.9329 7.49998 19.3293 7.63413 18.7134C8.82925 19.0061 10.1341 19.2317 11.5061 19.378C12.3292 20.5061 13.1829 21.5305 14.0427 22.4268C12.0549 24.2744 10.189 25.2866 8.92071 25.2866C8.64632 25.2805 8.41461 25.2256 8.23169 25.122ZM22.6951 20.4756C22.9817 22.8049 22.628 24.6159 21.8049 25.0976C21.6219 25.2073 21.3841 25.2561 21.1036 25.2561C19.8414 25.2561 17.9695 24.25 15.9817 22.4146C16.8353 21.5183 17.689 20.5 18.5 19.372C19.878 19.2256 21.1829 19 22.378 18.7012C22.5183 19.3171 22.628 19.9085 22.6951 20.4756ZM25.0427 16.4085C24.5183 16.6341 23.9451 16.8354 23.3536 17.0244C23.0061 15.8293 22.5488 14.5854 21.9817 13.311C22.5427 12.0427 22.9939 10.8049 23.3353 9.61585C23.939 9.80488 24.5122 10.0122 25.0488 10.2378C27.2073 11.1585 28.6036 12.3659 28.6036 13.3232C28.5975 14.2805 27.2012 15.4939 25.0427 16.4085Z" fill="#61DAFB"/>
<path d="M14.9939 16.1098C16.5328 16.1098 17.7804 14.8622 17.7804 13.3232C17.7804 11.7842 16.5328 10.5366 14.9939 10.5366C13.4549 10.5366 12.2073 11.7842 12.2073 13.3232C12.2073 14.8622 13.4549 16.1098 14.9939 16.1098Z" fill="#61DAFB"/>
</g>
<defs>
<clipPath id="clip0">
<rect width="30" height="26.6463" fill="white"/>
</clipPath>
</defs>
</svg>
