<svg width="40" height="40" viewBox="0 0 40 40" fill="none" xmlns="http://www.w3.org/2000/svg">
<path fill-rule="evenodd" clip-rule="evenodd" d="M34.6 33.669C37.9493 30.0931 40 25.286 40 20C40 8.95432 31.0457 0 20 0C8.95432 0 0 8.95432 0 20C0 25.286 2.05073 30.0931 5.4 33.669V11.9412C5.4 10.2464 6.66204 8.6 8.53684 8.6H31.4632C33.338 8.6 34.6 10.2464 34.6 11.9412V33.669ZM31.8 36.1498V11.9412C31.8 11.7432 31.7284 11.592 31.648 11.5021C31.5697 11.4146 31.5023 11.4 31.4632 11.4H8.53684C8.49772 11.4 8.43028 11.4146 8.35204 11.5021C8.2716 11.592 8.2 11.7432 8.2 11.9412V36.1498C11.5077 38.5707 15.587 40 20 40C24.413 40 28.4923 38.5707 31.8 36.1498ZM15.6 22C17.8092 22 19.6 20.2091 19.6 18C19.6 15.7908 17.8092 14 15.6 14C13.3908 14 11.6 15.7908 11.6 18C11.6 20.2091 13.3908 22 15.6 22ZM22.8 14.8C22.1372 14.8 21.6 15.3372 21.6 16C21.6 16.6627 22.1372 17.2 22.8 17.2H27.6C28.2628 17.2 28.8 16.6627 28.8 16C28.8 15.3372 28.2628 14.8 27.6 14.8H22.8ZM22.8 19.6C22.1372 19.6 21.6 20.1372 21.6 20.8C21.6 21.4627 22.1372 22 22.8 22H27.6C28.2628 22 28.8 21.4627 28.8 20.8C28.8 20.1372 28.2628 19.6 27.6 19.6H22.8ZM11.2 34.9292C11.2 34.2665 11.7372 33.7292 12.4 33.7292H27.6C28.2628 33.7292 28.8 34.2665 28.8 34.9292C28.8 35.592 28.2628 36.1292 27.6 36.1292H12.4C11.7372 36.1292 11.2 35.592 11.2 34.9292ZM12.4 29.0646C11.7372 29.0646 11.2 29.6019 11.2 30.2646C11.2 30.9274 11.7372 31.4646 12.4 31.4646H27.6C28.2628 31.4646 28.8 30.9274 28.8 30.2646C28.8 29.6019 28.2628 29.0646 27.6 29.0646H12.4ZM11.2 25.6C11.2 24.9372 11.7372 24.4 12.4 24.4H27.6C28.2628 24.4 28.8 24.9372 28.8 25.6C28.8 26.2627 28.2628 26.8 27.6 26.8H12.4C11.7372 26.8 11.2 26.2627 11.2 25.6Z" fill="#F65E1D"/>
</svg>
