<svg width="30" height="23" viewBox="0 0 30 23" fill="none" xmlns="http://www.w3.org/2000/svg">
<g clip-path="url(#clip0)">
<path fill-rule="evenodd" clip-rule="evenodd" d="M21.2033 17.0082C21.1081 16.9404 21.1239 16.7216 21.4369 16.0399C21.5597 15.7722 21.84 15.3216 22.3273 14.891C22.3837 15.0681 22.4182 15.2379 22.4172 15.396C22.4109 16.4507 21.6584 16.8446 21.2033 17.0082ZM17.1977 17.9212C17.0702 17.988 16.9532 18.0299 16.8989 17.9975C16.859 17.9737 16.9515 17.8859 16.9515 17.8859C16.9515 17.8859 17.6019 17.1862 17.858 16.8676C18.0071 16.6824 18.1798 16.4625 18.3681 16.2165C18.3696 16.2411 18.3705 16.2654 18.3705 16.2895C18.3685 17.1278 17.5588 17.6937 17.1977 17.9212ZM11.9982 15.4403C11.6973 16.1738 11.0676 18.0504 10.6843 17.9499C10.3553 17.8635 10.1549 16.437 10.6186 15.0331C10.852 14.3264 11.3506 13.4819 11.6434 13.1542C12.115 12.6268 12.6341 12.4543 12.7602 12.6681C12.921 12.9406 12.1868 14.9805 11.9982 15.4403ZM5.70476 19.7187C4.84089 20.6611 3.634 21.0173 3.11644 20.7173C2.55761 20.3933 2.77894 19.0058 3.83907 18.0058C4.48522 17.3963 5.31936 16.8349 5.87272 16.4892C5.99863 16.4134 6.18367 16.3021 6.4085 16.1674C6.44578 16.1461 6.46681 16.1344 6.46681 16.1344L6.46599 16.1329C6.5094 16.107 6.55385 16.0803 6.59978 16.0529C6.98551 17.4764 6.6115 18.7296 5.70476 19.7187ZM25.8075 12.9415C24.7594 12.947 23.8516 13.1986 23.0907 13.5736C22.8124 13.0182 22.5307 12.5296 22.4834 12.1662C22.4282 11.7421 22.3642 11.489 22.4309 10.9837C22.4976 10.4784 22.7899 9.76293 22.7857 9.70934C22.7814 9.65574 22.7201 9.39833 22.1156 9.39395C21.511 9.38963 20.9939 9.51023 20.9331 9.66987C20.8722 9.8295 20.7558 10.1887 20.6834 10.5633C20.5775 11.1115 19.4765 13.0664 18.8513 14.0891C18.6468 13.69 18.4729 13.338 18.4367 13.0597C18.3815 12.6355 18.3175 12.3825 18.3841 11.8772C18.4509 11.3719 18.7432 10.6563 18.7389 10.6027C18.7347 10.5491 18.6734 10.2918 18.0689 10.2874C17.4643 10.2831 16.9472 10.4037 16.8864 10.5633C16.8255 10.7229 16.7605 11.0959 16.6367 11.4567C16.5129 11.8176 15.0492 15.0787 14.6659 15.9239C14.4706 16.3546 14.3006 16.7006 14.1806 16.9369C14.1803 16.9363 14.1798 16.9356 14.1798 16.9356C14.1798 16.9356 14.1724 16.9513 14.1597 16.9779C14.057 17.179 13.9958 17.2903 13.9958 17.2903C13.9958 17.2903 13.9965 17.2918 13.9976 17.2945C13.9162 17.4422 13.8289 17.5794 13.7856 17.5794C13.7554 17.5794 13.6949 17.1862 13.7988 16.6465C14.0166 15.5153 14.5398 13.7511 14.5346 13.6903C14.5318 13.6592 14.6318 13.3518 14.1929 13.191C13.7663 13.0349 13.6144 13.2953 13.5754 13.2961C13.5377 13.297 13.5097 13.3882 13.5097 13.3882C13.5097 13.3882 13.985 11.4042 12.6031 11.4042C11.7392 11.4042 10.5421 12.3493 9.95239 13.2059C9.58024 13.4089 8.78387 13.8436 7.93894 14.3079C7.61442 14.4861 7.28327 14.6684 6.96925 14.8414C6.9479 14.8177 6.92661 14.794 6.90465 14.7706C5.22909 12.9829 2.13159 11.7185 2.26297 9.31512C2.31077 8.4414 2.61449 6.14082 8.21485 3.35016C12.8024 1.06414 16.475 1.69321 17.1097 3.08738C18.0164 5.07915 15.1469 8.78109 10.3827 9.31512C8.56746 9.51861 7.61168 8.81514 7.37392 8.55308C7.12369 8.27728 7.08635 8.26485 6.9929 8.31658C6.84071 8.40094 6.93717 8.64445 6.9929 8.78957C7.13518 9.15981 7.71887 9.81631 8.71407 10.1429C9.58954 10.4302 11.7207 10.588 14.298 9.59103C17.1847 8.47447 19.4387 5.36837 18.7767 2.77206C18.1034 0.131454 13.7251 -0.73663 9.58128 0.73556C7.11509 1.61169 4.44537 2.98682 2.5258 4.78228C0.243394 6.91715 -0.120547 8.77523 0.029398 9.55162C0.562281 12.3103 4.36456 14.1067 5.88717 15.4381C5.81201 15.4795 5.74155 15.5184 5.67745 15.5538C4.91409 15.9314 2.01569 17.4482 1.29071 19.0509C0.468394 20.8688 1.42166 22.1731 2.05276 22.3487C4.00818 22.8928 6.01473 21.9141 7.09308 20.3057C8.17122 18.6976 8.03956 16.6038 7.54473 15.648C7.5386 15.6361 7.53181 15.6245 7.52551 15.6127C7.72259 15.4961 7.92361 15.3774 8.12283 15.2604C8.51135 15.0323 8.8927 14.8195 9.22369 14.6394C9.03854 15.1468 8.90288 15.755 8.83232 16.6334C8.74943 17.6653 9.17234 18.9992 9.72575 19.5239C9.96942 19.755 10.2626 19.7604 10.4484 19.7604C11.0923 19.7604 11.3862 19.2246 11.7097 18.591C12.1065 17.8139 12.4586 16.9093 12.4586 16.9093C12.4586 16.9093 12.0167 19.3531 13.2207 19.3531C13.6594 19.3531 14.1007 18.7842 14.2972 18.4942C14.2977 18.4974 14.298 18.4991 14.298 18.4991C14.298 18.4991 14.3095 18.4802 14.3318 18.4423C14.3773 18.3727 14.4031 18.3283 14.4031 18.3283C14.4031 18.3283 14.404 18.3237 14.4054 18.3157C14.5818 18.0095 14.9728 17.3115 15.5594 16.1604C16.3172 14.6731 17.044 12.81 17.044 12.81C17.044 12.81 17.1116 13.2655 17.333 14.0188C17.4633 14.462 17.7401 14.9519 17.9585 15.4217C17.7827 15.6656 17.6747 15.8057 17.6747 15.8057C17.6747 15.8057 17.6757 15.8083 17.6776 15.813C17.5371 15.9994 17.3796 16.2007 17.2149 16.3969C16.6168 17.1092 15.9044 17.9227 15.809 18.1575C15.6966 18.4341 15.7232 18.6376 15.9403 18.8013C16.099 18.9208 16.3814 18.9394 16.6761 18.9195C17.2136 18.8834 17.5918 18.7501 17.7783 18.6689C18.0692 18.566 18.4079 18.4042 18.7258 18.1706C19.3125 17.7393 19.6664 17.1222 19.6324 16.3049C19.6135 15.8545 19.4699 15.408 19.2882 14.9865C19.3415 14.91 19.3948 14.8328 19.4484 14.7545C20.3733 13.4024 21.0907 11.9166 21.0907 11.9166C21.0907 11.9166 21.1583 12.3721 21.3798 13.1253C21.4919 13.5066 21.713 13.9225 21.9118 14.3305C21.0422 15.0371 20.5028 15.8582 20.3155 16.3969C19.9693 17.3931 20.2405 17.8445 20.7492 17.9472C20.9796 17.9938 21.305 17.8882 21.5498 17.7846C21.8544 17.6836 22.2204 17.5154 22.5623 17.2641C23.149 16.8327 23.7131 16.2288 23.6791 15.4115C23.6635 15.0394 23.5626 14.6701 23.4257 14.3153C24.1629 14.0082 25.1174 13.8375 26.3331 13.9794C28.9411 14.284 29.4528 15.9124 29.355 16.594C29.2572 17.2756 28.7101 17.6502 28.5272 17.7634C28.3444 17.8765 28.2885 17.9157 28.3039 17.9998C28.3261 18.1221 28.4107 18.1174 28.5666 18.0912C28.7813 18.0549 29.9362 17.5368 29.9856 16.2787C30.0484 14.6815 28.5181 12.927 25.8075 12.9415Z" fill="#BE5F8B"/>
</g>
<defs>
<clipPath id="clip0">
<rect width="30" height="22.5" fill="white"/>
</clipPath>
</defs>
</svg>
