<svg width="30" height="30" viewBox="0 0 30 30" fill="none" xmlns="http://www.w3.org/2000/svg">
<path fill-rule="evenodd" clip-rule="evenodd" d="M8.48381 5.6669L14.9767 4.98047L21.4696 5.6669L26.4964 12.4149L14.9767 25.8295L3.45703 12.4149L8.48381 5.6669Z" fill="#FDB300"/>
<path fill-rule="evenodd" clip-rule="evenodd" d="M8.12309 12.4148L14.9767 25.8294L3.45703 12.4148H8.12309Z" fill="#EA6C00"/>
<path fill-rule="evenodd" clip-rule="evenodd" d="M21.8304 12.4148L14.9768 25.8294L26.4965 12.4148H21.8304Z" fill="#EA6C00"/>
<path fill-rule="evenodd" clip-rule="evenodd" d="M8.12311 12.4148H21.8304L14.9768 25.8294L8.12311 12.4148Z" fill="#FDAD00"/>
<path fill-rule="evenodd" clip-rule="evenodd" d="M14.9768 4.98047L8.48381 5.66689L8.12311 12.4149L14.9768 4.98047Z" fill="#FDD231"/>
<path fill-rule="evenodd" clip-rule="evenodd" d="M14.9767 4.98047L21.4697 5.66689L21.8304 12.4149L14.9767 4.98047Z" fill="#FDD231"/>
<path fill-rule="evenodd" clip-rule="evenodd" d="M26.4965 12.415L21.4696 5.66699L21.8304 12.415H26.4965Z" fill="#FDAD00"/>
<path fill-rule="evenodd" clip-rule="evenodd" d="M3.45703 12.415L8.48379 5.66699L8.12308 12.415H3.45703Z" fill="#FDAD00"/>
<path fill-rule="evenodd" clip-rule="evenodd" d="M14.9768 4.98047L8.12311 12.4149H21.8304L14.9768 4.98047Z" fill="#FEEEB7"/>
</svg>
