<svg width="24" height="30" viewBox="0 0 24 30" fill="none" xmlns="http://www.w3.org/2000/svg">
<g clip-path="url(#clip0)">
<mask id="mask0" mask-type="alpha" maskUnits="userSpaceOnUse" x="0" y="0" width="25" height="30">
<path d="M0.930419 27.644L0.00108014 2.88134C-0.0296123 2.06352 0.597458 1.37044 1.41425 1.31939L22.4766 0.00298852C23.308 -0.048974 24.0241 0.582885 24.0761 1.41429C24.0781 1.44561 24.079 1.47699 24.079 1.50837V28.4917C24.079 29.3247 23.4037 30 22.5707 30C22.5482 30 22.5256 29.9995 22.503 29.9985L2.37 29.0942C1.5859 29.059 0.959855 28.4283 0.930419 27.644Z" fill="white"/>
</mask>
<g mask="url(#mask0)">
<path d="M0.930419 27.644L0.00108014 2.88134C-0.0296123 2.06352 0.597458 1.37044 1.41425 1.31939L22.4766 0.00298852C23.308 -0.048974 24.0241 0.582885 24.0761 1.41429C24.0781 1.44561 24.079 1.47699 24.079 1.50837V28.4917C24.079 29.3247 23.4037 30 22.5707 30C22.5482 30 22.5256 29.9995 22.503 29.9985L2.37 29.0942C1.5859 29.059 0.959855 28.4283 0.930419 27.644Z" fill="#FF4785"/>
<path d="M17.7805 3.68748L17.9243 0.227268L20.8168 0L20.9414 3.5684C20.9458 3.69258 20.8486 3.79677 20.7244 3.80111C20.6713 3.80297 20.6191 3.78592 20.5773 3.75299L19.4619 2.87429L18.1413 3.87609C18.0422 3.95119 17.9011 3.93181 17.826 3.8328C17.7944 3.79113 17.7783 3.73974 17.7805 3.68748Z" fill="white"/>
<path d="M14.0814 11.3074C14.0814 11.8942 18.0341 11.613 18.5648 11.2008C18.5648 7.20464 16.4205 5.10474 12.4941 5.10474C8.56761 5.10474 6.36768 7.23732 6.36768 10.4362C6.36768 16.0076 13.8864 16.1142 13.8864 19.1531C13.8864 20.0061 13.4687 20.5126 12.5498 20.5126C11.3523 20.5126 10.8789 19.9011 10.9346 17.8218C10.9346 17.3708 6.36768 17.2301 6.22845 17.8218C5.87389 22.8606 9.01317 24.314 12.6055 24.314C16.0864 24.314 18.8154 22.4586 18.8154 19.0998C18.8154 13.1286 11.1852 13.2885 11.1852 10.3296C11.1852 9.12998 12.0764 8.97004 12.6055 8.97004C13.1624 8.97004 14.1649 9.0682 14.0814 11.3074Z" fill="white"/>
</g>
</g>
<defs>
<clipPath id="clip0">
<rect width="24" height="30" fill="white"/>
</clipPath>
</defs>
</svg>
