<svg width="30" height="30" viewBox="0 0 30 30" fill="none" xmlns="http://www.w3.org/2000/svg">
<path opacity="0.75" d="M28.5938 0H1.40625C0.6296 0 0 0.6296 0 1.40625V28.5938C0 29.3704 0.6296 30 1.40625 30H28.5938C29.3704 30 30 29.3704 30 28.5938V1.40625C30 0.6296 29.3704 0 28.5938 0Z" fill="#3178C6"/>
<path fill-rule="evenodd" clip-rule="evenodd" d="M17.4052 23.3128V26.6002C17.9378 26.8739 18.5677 27.0795 19.2949 27.2163C20.022 27.3534 20.7885 27.4219 21.5942 27.4219C22.3794 27.4219 23.1254 27.3466 23.832 27.1959C24.5388 27.0452 25.1583 26.797 25.691 26.4511C26.2235 26.1052 26.6452 25.6533 26.9559 25.095C27.2665 24.537 27.4219 23.847 27.4219 23.0252C27.4219 22.4294 27.333 21.9072 27.1556 21.4586C26.978 21.01 26.722 20.6111 26.3873 20.2618C26.0529 19.9125 25.6516 19.5992 25.1841 19.3219C24.7163 19.0445 24.1889 18.7826 23.6016 18.536C23.1714 18.358 22.7857 18.185 22.4443 18.0172C22.1029 17.8495 21.8127 17.6782 21.5737 17.5036C21.3347 17.329 21.1504 17.1441 21.0206 16.9489C20.8909 16.7537 20.826 16.5328 20.826 16.2863C20.826 16.0603 20.8841 15.8565 21.0001 15.6751C21.1162 15.4936 21.2801 15.3378 21.4918 15.2077C21.7034 15.0776 21.9629 14.9765 22.2701 14.9046C22.5774 14.8327 22.9188 14.7968 23.2943 14.7968C23.5676 14.7968 23.8559 14.8173 24.1598 14.8584C24.4636 14.8995 24.7692 14.9628 25.0765 15.0484C25.3837 15.134 25.6823 15.2419 25.9727 15.372C26.2629 15.5021 26.5308 15.6528 26.7766 15.824V12.7525C26.2781 12.5607 25.7337 12.4186 25.143 12.3262C24.5524 12.2337 23.8748 12.1875 23.11 12.1875C22.3316 12.1875 21.5942 12.2714 20.8977 12.4392C20.2013 12.607 19.5885 12.8689 19.0593 13.225C18.5301 13.5812 18.1119 14.0349 17.8046 14.5862C17.4974 15.1375 17.3438 15.7966 17.3438 16.5637C17.3438 17.543 17.6254 18.3785 18.1887 19.0702C18.752 19.7619 19.6072 20.3474 20.7543 20.8268C21.205 21.0117 21.6249 21.1932 22.0141 21.3713C22.4033 21.5493 22.7396 21.7342 23.0229 21.926C23.3063 22.1178 23.5298 22.3266 23.6937 22.5526C23.8577 22.7786 23.9395 23.0354 23.9395 23.3231C23.9395 23.5355 23.8884 23.7323 23.786 23.9137C23.6836 24.0952 23.5282 24.2527 23.32 24.3862C23.1117 24.5198 22.8522 24.6244 22.5416 24.6996C22.2309 24.7748 21.8673 24.8126 21.4508 24.8126C20.7407 24.8126 20.0374 24.6877 19.3409 24.4376C18.6445 24.1877 17.9992 23.8127 17.4052 23.3128ZM11.8834 15.1299H16.1719V12.4219H4.21875V15.1299H8.48623V27.1875H11.8834V15.1299Z" fill="white"/>
</svg>
