<svg version="1" xmlns="http://www.w3.org/2000/svg" width="933.333" height="933.333" viewBox="0 0 700.000000 700.000000"><path d="M224 117.7c-29.2 3-54.7 10.1-79.5 22.2C69.4 176.7 25.3 252.1 11.4 367.5c-2 16.7-2.3 53.7-.5 67 4.4 33 14.4 60.6 29.4 80.9 26.3 35.5 63.4 55.5 120.7 64.8 13.5 2.2 14 2.2 174.1 2.5l160.7.4 5.5-2.1c6.8-2.6 13.4-8.6 16.7-15.5 3.4-6.8 3.5-18.8.3-25.6-2.7-6-9.2-12.5-15.2-15.3l-4.6-2.1-145-.6c-148.1-.6-149.1-.6-169-4.5-53.3-10.5-86.6-37.4-99-80-12.1-41.5-3.3-106.9 21-156.9 27.8-57.2 72.4-89.7 137.5-100.2 9.5-1.5 27.8-1.8 193-2.2l182.5-.6 4.9-2.4c10.6-5.2 16.6-14.2 17.4-25.7.7-10.3-1.6-16.3-8.7-23.5-9.9-9.8 11.5-8.9-210.5-8.7-107.3 0-196.7.3-198.6.5z"/><path d="M445.5 233.2c-.9 5.1-3.6 18.9-6 30.6l-4.2 21.3 49.1-.3c49-.3 49.1-.3 53.4-2.6 5.6-3 11.4-9.1 14.3-15 3.3-6.7 3.3-18.7 0-25.4-2.9-6.1-8.9-12-14.9-15-4.7-2.3-5.1-2.3-47.3-2.6l-42.7-.3-1.7 9.3zM259.9 226.5c-50.6 7.2-92 36.5-112.3 79.6-10.9 23-15 51.4-11.1 77.2 6.4 42.7 36.6 74.6 82.5 87.3 21.9 6.1 55.1 7.6 78.4 3.5 27.9-4.9 54.9-17.5 74.3-34.6 23.1-20.3 37-44.1 43.4-74.5 2.9-13.9 3.2-39.4.5-51.5-4.8-21.5-13.3-37.2-28.6-52.5-17.8-17.8-38.8-28.1-68.2-33.6-11.6-2.2-46.2-2.7-58.9-.9zm32.8 79.1c15.1 5 23.3 18.4 23.3 37.7-.1 23.6-9.5 41.9-25.8 49.9-5.8 2.9-7.9 3.3-15.8 3.6-25.1 1-37.8-12.3-37.6-39.4.2-16 3.5-27.4 10.9-37.1 5.7-7.4 12.4-12.3 20.6-14.8 5.9-1.9 18.6-1.8 24.4.1zM468.5 318.2c-.5 1.5-11.5 57.9-11.5 59.1 0 .4 46.5.7 103.3.7 113.2 0 109 .2 117.4-5.9 5.6-4.1 10-10.8 11.9-18.1 1.9-7.5 1.3-12.4-2.7-20.7-3.2-6.7-7.7-11-15-14.3-4.3-1.9-7-2-103.7-2-78.5 0-99.4.3-99.7 1.2zM428.6 444.2c-3.1 16.1-5.6 29.9-5.6 30.6 0 1 15.3 1.2 77.8 1l77.7-.3 4.9-2.4c6-2.9 11.7-8.5 14.8-14.3 1.9-3.6 2.3-5.8 2.3-13.8 0-11.1-1.6-15.1-8.8-21.7-9.1-8.4-2.2-7.8-84.3-8.1l-73-.2-5.8 29.2z"/></svg>